<svg width="24" height="24" viewBox="0 0 24 24" fill="none" xmlns="http://www.w3.org/2000/svg">
<path d="M9.12498 14.975H11.725V22.9277C12.3613 23.0317 13.0094 23.1 13.675 23.1C14.3406 23.1 14.9886 23.0317 15.625 22.9277V14.975H17.9812C18.3088 14.975 18.5857 14.7306 18.626 14.4056L18.8698 12.4556C18.8932 12.271 18.8353 12.0851 18.7118 11.9447C18.589 11.8049 18.4115 11.725 18.225 11.725H15.625V9.45C15.625 8.73305 16.208 8.15 16.925 8.15H18.225C18.5838 8.15 18.875 7.85945 18.875 7.5V5.30625C18.875 4.96955 18.6176 4.68875 18.2828 4.65885C18.2445 4.6556 17.328 4.575 16.1671 4.575C13.3025 4.575 11.725 6.27605 11.725 9.3642V11.725H9.12498C8.76618 11.725 8.47498 12.0155 8.47498 12.375V14.325C8.47498 14.6844 8.76618 14.975 9.12498 14.975Z" fill="#275C3E"/>
<path d="M19.85 22.45H3.6C2.16415 22.45 1 21.2858 1 19.85V3.6C1 2.16415 2.16415 1 3.6 1H19.85C21.2858 1 22.45 2.16415 22.45 3.6V19.85C22.45 21.2858 21.2858 22.45 19.85 22.45Z" stroke="#275C3E" stroke-width="2" stroke-miterlimit="10" stroke-linejoin="round"/>
</svg>
