<svg width="24" height="24" viewBox="0 0 24 24" fill="none" xmlns="http://www.w3.org/2000/svg">
<path d="M7.0005 23H17.0006C20.3138 23 23 20.3138 23 16.9995V6.9994C23 3.6862 20.3138 1 16.9995 1H6.9994C3.6862 1 1 3.6862 1 7.0005V17.0006C1 20.3138 3.6862 23 7.0005 23Z" stroke="#275C3E" stroke-width="2" stroke-miterlimit="10"/>
<path d="M12 6.5C10.5413 6.5 9.14236 7.07946 8.11091 8.11091C7.07946 9.14236 6.5 10.5413 6.5 12C6.5 13.4587 7.07946 14.8576 8.11091 15.8891C9.14236 16.9205 10.5413 17.5 12 17.5C13.4587 17.5 14.8576 16.9205 15.8891 15.8891C16.9205 14.8576 17.5 13.4587 17.5 12C17.5 10.5413 16.9205 9.14236 15.8891 8.11091C14.8576 7.07946 13.4587 6.5 12 6.5Z" stroke="#275C3E" stroke-width="2" stroke-miterlimit="10"/>
<path d="M18.4999 4.5002C18.2347 4.5002 17.9804 4.60554 17.7929 4.79306C17.6053 4.98058 17.5 5.23491 17.5 5.5001C17.5 5.76529 17.6053 6.01962 17.7929 6.20713C17.9804 6.39465 18.2347 6.5 18.4999 6.5C18.7651 6.5 19.0194 6.39465 19.2069 6.20713C19.3945 6.01962 19.4998 5.76529 19.4998 5.5001C19.4998 5.23491 19.3945 4.98058 19.2069 4.79306C19.0194 4.60554 18.7651 4.5002 18.4999 4.5002Z" fill="#275C3E"/>
</svg>
