<svg width="22" height="24" viewBox="0 0 22 24" fill="none" xmlns="http://www.w3.org/2000/svg">
<path d="M17.1996 16.5504C17.1324 16.4712 17.0292 16.4316 16.8888 16.4316C16.7484 16.4316 16.6452 16.4736 16.578 16.5552C16.5108 16.638 16.4664 16.7736 16.4448 16.9608C16.422 17.148 16.4112 17.4336 16.4112 17.8152V18.2352H17.3748V17.8152C17.3748 17.4396 17.3616 17.1552 17.3364 16.9608C17.3124 16.7664 17.2668 16.6296 17.1996 16.5504ZM13.0212 16.632C12.948 16.5276 12.8448 16.4748 12.7104 16.4748C12.5832 16.4748 12.4656 16.5252 12.3576 16.6272C12.2496 16.7292 12.1728 16.86 12.1284 17.0184V20.34C12.186 20.442 12.2604 20.5176 12.3528 20.5692C12.4452 20.6196 12.5448 20.646 12.654 20.646C12.7944 20.646 12.9048 20.5956 12.9876 20.4936C13.0704 20.3916 13.1292 20.22 13.164 19.9776C13.1988 19.7364 13.2168 19.4016 13.2168 18.9756V18.222C13.2168 17.7636 13.2024 17.4108 13.1736 17.1624C13.1448 16.914 13.0932 16.7364 13.0212 16.632Z" fill="#275C3E"/>
<path d="M19.2 10.8H2.4C1.08 10.8 0 11.88 0 13.2V21.6C0 22.92 1.08 24 2.4 24H19.2C20.52 24 21.6 22.92 21.6 21.6V13.2C21.6 11.88 20.52 10.8 19.2 10.8ZM5.5788 21.504H4.2912V14.556H2.9832V13.4964H6.8868V14.556H5.5788V21.504ZM10.0644 21.504H9.0336L8.9196 20.7876H8.8908C8.61 21.33 8.19 21.6 7.6296 21.6C7.2408 21.6 6.9552 21.4728 6.7704 21.2184C6.5856 20.964 6.4932 20.5656 6.4932 20.0256V15.654H7.812V19.95C7.812 20.2104 7.8408 20.3976 7.8984 20.508C7.956 20.6196 8.0508 20.6748 8.1852 20.6748C8.2992 20.6748 8.4096 20.64 8.514 20.5692C8.6196 20.4996 8.6964 20.4096 8.748 20.3016V15.6528H10.0656V21.504H10.0644ZM14.5428 19.0512C14.5428 19.9236 14.4372 20.5644 14.2272 20.9748C14.0172 21.3852 13.6896 21.5904 13.2444 21.5904C12.996 21.5904 12.7704 21.5328 12.5664 21.4188C12.3624 21.3048 12.21 21.1488 12.108 20.9508H12.0792L11.946 21.504H10.8576V13.2H12.1272V16.2828H12.1368C12.2508 16.0596 12.414 15.8808 12.624 15.744C12.834 15.6072 13.0596 15.5388 13.302 15.5388C13.614 15.5388 13.8588 15.6216 14.0364 15.7872C14.214 15.9528 14.3436 16.2204 14.4228 16.5888C14.502 16.9584 14.5416 17.4708 14.5416 18.126V19.0512H14.5428ZM18.6168 19.0176H16.4124V19.314C16.4124 19.6896 16.4232 19.9716 16.446 20.1588C16.4688 20.346 16.5144 20.484 16.584 20.5692C16.6536 20.6556 16.7616 20.6976 16.908 20.6976C17.1048 20.6976 17.2404 20.6208 17.3136 20.4684C17.3868 20.316 17.4264 20.0616 17.4324 19.7052L18.5688 19.7724C18.5748 19.8228 18.5784 19.8936 18.5784 19.9824C18.5784 20.5236 18.4308 20.928 18.1344 21.1944C17.838 21.462 17.4204 21.5952 16.8792 21.5952C16.23 21.5952 15.7752 21.3912 15.5136 20.9844C15.252 20.5776 15.1224 19.9476 15.1224 19.0944V18.072C15.1224 17.1936 15.258 16.5528 15.528 16.1484C15.798 15.744 16.2612 15.5424 16.9164 15.5424C17.3676 15.5424 17.7144 15.6252 17.9568 15.7908C18.198 15.9564 18.3684 16.2144 18.468 16.5636C18.5664 16.914 18.6156 17.3976 18.6156 18.0144V19.0176H18.6168Z" fill="#275C3E"/>
<path d="M8.78884 9.2832C8.47564 9.072 8.25364 8.7444 8.12164 8.2992C7.98964 7.854 7.92364 7.2624 7.92364 6.5244V5.5176C7.92364 4.7712 7.99924 4.1724 8.14924 3.72C8.30044 3.2676 8.53564 2.9376 8.85604 2.7312C9.17644 2.5236 9.59644 2.4204 10.1172 2.4204C10.6296 2.4204 11.04 2.526 11.3496 2.7372C11.6592 2.9484 11.8848 3.2784 12.0276 3.726C12.1704 4.1748 12.2424 4.7724 12.2424 5.5176V6.5244C12.2424 7.2636 12.1728 7.8564 12.0336 8.3052C11.8944 8.754 11.6676 9.0816 11.3556 9.2892C11.0436 9.4968 10.6188 9.6 10.0836 9.6C9.53404 9.6 9.10204 9.4944 8.78884 9.2832ZM10.542 8.1984C10.6284 7.9728 10.6716 7.6032 10.6716 7.0908V4.9308C10.6716 4.4328 10.6284 4.0692 10.542 3.84C10.4556 3.6096 10.302 3.4956 10.0836 3.4956C9.87244 3.4956 9.72364 3.6108 9.63724 3.84C9.55084 4.0704 9.50764 4.434 9.50764 4.9308V7.0908C9.50764 7.6032 9.54844 7.9728 9.63244 8.1984C9.71524 8.424 9.86644 8.538 10.0848 8.538C10.302 8.5368 10.4556 8.424 10.542 8.1984ZM4.98964 6.4116L3.21484 0H4.76404L5.38564 2.9064C5.54404 3.6216 5.66044 4.2324 5.73604 4.7376H5.78164C5.83444 4.3764 5.95084 3.7692 6.13204 2.9172L6.77644 0H8.32564L6.52804 6.4116V9.4872H4.98964V6.4116ZM17.2812 2.556V9.4872H16.0596L15.924 8.6388H15.8904C15.5592 9.2796 15.0612 9.6 14.3988 9.6C13.9392 9.6 13.5996 9.4488 13.3812 9.1476C13.1628 8.8464 13.0536 8.3748 13.0536 7.734V2.556H14.6136V7.644C14.6136 7.9536 14.6472 8.1732 14.7156 8.3052C14.784 8.4372 14.8968 8.5032 15.0552 8.5032C15.1908 8.5032 15.3204 8.4624 15.4452 8.3784C15.57 8.2956 15.6624 8.19 15.7224 8.0616V2.556H17.2812Z" fill="#275C3E"/>
</svg>
